<svg width="10" height="7" viewBox="0 0 10 7" fill="none" xmlns="http://www.w3.org/2000/svg">
<path d="M1.00206 0C0.813715 0.00011764 0.629231 0.0534247 0.469848 0.153783C0.310466 0.254141 0.182667 0.39747 0.101163 0.567268C0.0196597 0.737067 -0.0122337 0.926432 0.00915501 1.11356C0.0305437 1.30069 0.104345 1.47797 0.222062 1.625L4.22206 6.625C4.31575 6.74197 4.43454 6.83639 4.56964 6.90128C4.70474 6.96616 4.85269 6.99984 5.00256 6.99984C5.15243 6.99984 5.30039 6.96616 5.43548 6.90128C5.57058 6.83639 5.68937 6.74197 5.78306 6.625L9.78306 1.625C9.90078 1.47797 9.97458 1.30069 9.99597 1.11356C10.0174 0.926432 9.98546 0.737067 9.90396 0.567268C9.82246 0.39747 9.69466 0.254141 9.53528 0.153783C9.37589 0.0534247 9.19141 0.00011764 9.00306 0H1.00306H1.00206Z" fill="#054BC7"/>
</svg>
