<svg width="25" height="25" viewBox="0 0 25 25" fill="none" xmlns="http://www.w3.org/2000/svg">
<g clip-path="url(#clip0_102_129)">
<path d="M17.273 0.387789C17.222 0.330789 15.3845 0.410289 13.7855 2.14579C12.1865 3.87979 12.4325 5.86879 12.4685 5.91979C12.5045 5.97079 14.7485 6.05029 16.181 4.03279C17.6135 2.01529 17.324 0.446289 17.273 0.387789ZM22.244 17.9873C22.172 17.8433 18.7565 16.1363 19.0745 12.8543C19.3925 9.57079 21.587 8.67079 21.6215 8.57329C21.656 8.47579 20.726 7.38829 19.7405 6.83779C19.0169 6.44967 18.2161 6.2273 17.396 6.18679C17.234 6.18229 16.6715 6.04429 15.515 6.36079C14.753 6.56929 13.0355 7.24429 12.563 7.27129C12.089 7.29829 10.679 6.48829 9.16251 6.27379C8.19201 6.08629 7.16301 6.47029 6.42651 6.76579C5.69151 7.05979 4.29351 7.89679 3.31551 10.1213C2.33751 12.3443 2.84901 15.8663 3.21501 16.9613C3.58101 18.0548 4.15251 19.8473 5.12451 21.1553C5.98851 22.6313 7.13451 23.6558 7.61301 24.0038C8.09151 24.3518 9.44151 24.5828 10.3775 24.1043C11.1305 23.6423 12.4895 23.3768 13.0265 23.3963C13.562 23.4158 14.618 23.6273 15.6995 24.2048C16.556 24.5003 17.366 24.3773 18.1775 24.0473C18.989 23.7158 20.1635 22.4588 21.5345 19.9103C22.055 18.7253 22.292 18.0848 22.244 17.9873Z" fill="white"/>
<path d="M17.273 0.387789C17.222 0.330789 15.3845 0.410289 13.7855 2.14579C12.1865 3.87979 12.4325 5.86879 12.4685 5.91979C12.5045 5.97079 14.7485 6.05029 16.181 4.03279C17.6135 2.01529 17.324 0.446289 17.273 0.387789ZM22.244 17.9873C22.172 17.8433 18.7565 16.1363 19.0745 12.8543C19.3925 9.57079 21.587 8.67079 21.6215 8.57329C21.656 8.47579 20.726 7.38829 19.7405 6.83779C19.0169 6.44967 18.2161 6.2273 17.396 6.18679C17.234 6.18229 16.6715 6.04429 15.515 6.36079C14.753 6.56929 13.0355 7.24429 12.563 7.27129C12.089 7.29829 10.679 6.48829 9.16251 6.27379C8.19201 6.08629 7.16301 6.47029 6.42651 6.76579C5.69151 7.05979 4.29351 7.89679 3.31551 10.1213C2.33751 12.3443 2.84901 15.8663 3.21501 16.9613C3.58101 18.0548 4.15251 19.8473 5.12451 21.1553C5.98851 22.6313 7.13451 23.6558 7.61301 24.0038C8.09151 24.3518 9.44151 24.5828 10.3775 24.1043C11.1305 23.6423 12.4895 23.3768 13.0265 23.3963C13.562 23.4158 14.618 23.6273 15.6995 24.2048C16.556 24.5003 17.366 24.3773 18.1775 24.0473C18.989 23.7158 20.1635 22.4588 21.5345 19.9103C22.055 18.7253 22.292 18.0848 22.244 17.9873Z" fill="white"/>
</g>
<defs>
<clipPath id="clip0_102_129">
<rect width="24" height="24" fill="white" transform="translate(0.5 0.375793)"/>
</clipPath>
</defs>
</svg>
