<svg width="24" height="24" viewBox="0 0 24 24" fill="none" xmlns="http://www.w3.org/2000/svg">
<path d="M20 23C20.7956 23 21.5587 22.6839 22.1213 22.1213C22.6839 21.5587 23 20.7956 23 20V4C23 3.20435 22.6839 2.44129 22.1213 1.87868C21.5587 1.31607 20.7956 1 20 1H4C3.20435 1 2.44129 1.31607 1.87868 1.87868C1.31607 2.44129 1 3.20435 1 4V7C1 7.26522 1.10536 7.51957 1.29289 7.70711C1.48043 7.89464 1.73478 8 2 8C2.26522 8 2.51957 7.89464 2.70711 7.70711C2.89464 7.51957 3 7.26522 3 7V4C3 3.73478 3.10536 3.48043 3.29289 3.29289C3.48043 3.10536 3.73478 3 4 3H20C20.2652 3 20.5196 3.10536 20.7071 3.29289C20.8946 3.48043 21 3.73478 21 4V20C21 20.2652 20.8946 20.5196 20.7071 20.7071C20.5196 20.8946 20.2652 21 20 21H4C3.73478 21 3.48043 20.8946 3.29289 20.7071C3.10536 20.5196 3 20.2652 3 20V17C3 16.7348 2.89464 16.4804 2.70711 16.2929C2.51957 16.1054 2.26522 16 2 16C1.73478 16 1.48043 16.1054 1.29289 16.2929C1.10536 16.4804 1 16.7348 1 17V20C1 20.7956 1.31607 21.5587 1.87868 22.1213C2.44129 22.6839 3.20435 23 4 23H20Z" fill="#0577FB"/>
<path d="M12.293 16.707C12.1055 16.5195 12.0002 16.2652 12.0002 16C12.0002 15.7348 12.1055 15.4805 12.293 15.293L14.586 13H7C6.73478 13 6.48043 12.8947 6.29289 12.7071C6.10536 12.5196 6 12.2652 6 12C6 11.7348 6.10536 11.4804 6.29289 11.2929C6.48043 11.1054 6.73478 11 7 11H14.586L12.293 8.70701C12.1108 8.51841 12.01 8.26581 12.0123 8.00361C12.0146 7.74141 12.1198 7.4906 12.3052 7.30519C12.4906 7.11978 12.7414 7.01461 13.0036 7.01234C13.2658 7.01006 13.5184 7.11085 13.707 7.29301L17.707 11.293C17.8945 11.4805 17.9998 11.7348 17.9998 12C17.9998 12.2652 17.8945 12.5195 17.707 12.707L13.707 16.707C13.5195 16.8945 13.2652 16.9998 13 16.9998C12.7348 16.9998 12.4805 16.8945 12.293 16.707Z" fill="#0577FB"/>
</svg>
