<svg width="111" height="25" viewBox="0 0 111 25" fill="none" xmlns="http://www.w3.org/2000/svg">
<path d="M44.5503 9.52901C44.4526 9.58831 44.3361 9.60892 44.2239 9.5868C44.1117 9.56468 44.0119 9.50142 43.9439 9.40944C43.6099 8.92991 43.1617 8.54113 42.6398 8.27819C42.1179 8.01526 41.5387 7.88645 40.9546 7.9034C38.677 7.9034 37.279 9.70551 37.279 12.2792C37.279 14.853 38.7026 16.6894 40.9802 16.6894C41.5721 16.7035 42.1579 16.5663 42.682 16.2908C43.2061 16.0153 43.6512 15.6105 43.9752 15.1149C44.04 15.0217 44.1374 14.9562 44.2481 14.9315C44.3588 14.9067 44.4749 14.9244 44.5731 14.9811L45.655 15.6075C45.7141 15.6374 45.7661 15.6797 45.8073 15.7316C45.8486 15.7834 45.8782 15.8435 45.8941 15.9078C45.91 15.9721 45.9119 16.0391 45.8996 16.1042C45.8874 16.1693 45.8612 16.231 45.8229 16.285C45.2941 17.0778 44.5725 17.7233 43.726 18.161C42.8795 18.5987 41.9357 18.8143 40.9831 18.7875C37.3417 18.7875 34.8733 16.1456 34.8733 12.2936C34.8733 8.44158 37.3417 5.83357 40.9289 5.83357C41.8657 5.80757 42.7945 6.01143 43.6343 6.42733C44.474 6.84324 45.1991 7.45852 45.7461 8.21939C45.7837 8.27061 45.8104 8.32903 45.8246 8.39101C45.8387 8.45299 45.8399 8.51721 45.8282 8.57968C45.8164 8.64215 45.7919 8.70154 45.7563 8.75416C45.7206 8.80678 45.6745 8.85151 45.6208 8.88556L44.5503 9.52901Z" fill="white"/>
<path fill-rule="evenodd" clip-rule="evenodd" d="M52.5107 17.5662V18.09C52.5107 18.1515 52.5231 18.2124 52.5473 18.269C52.5714 18.3256 52.6067 18.3767 52.6512 18.4193C52.6956 18.4619 52.7482 18.495 52.8058 18.5167C52.8633 18.5384 52.9247 18.5482 52.9862 18.5455H54.1762C54.236 18.5455 54.2953 18.5338 54.3506 18.5109C54.4058 18.488 54.456 18.4544 54.4983 18.4121C54.5406 18.3698 54.5742 18.3196 54.5971 18.2643C54.62 18.2091 54.6318 18.1498 54.6318 18.09V12.1397C54.6318 9.98451 53.1001 9.09341 50.9306 9.09341C49.7112 9.09623 48.5109 9.39727 47.4345 9.9703C47.3317 10.0275 47.2548 10.1221 47.2199 10.2345C47.1849 10.3468 47.1944 10.4684 47.2466 10.5738L47.6366 11.3881C47.6634 11.4427 47.701 11.4914 47.7471 11.5311C47.7932 11.5708 47.8469 11.6008 47.9049 11.6192C47.9629 11.6375 48.024 11.6439 48.0846 11.638C48.1452 11.632 48.2039 11.6139 48.2573 11.5846C49.0258 11.1852 49.8767 10.9698 50.7427 10.9553C51.4972 10.9553 52.3883 11.1633 52.3883 11.9348C52.3883 12.7418 51.4135 12.8794 50.2107 13.0492C50.1138 13.0628 50.0169 13.0766 49.92 13.0906C48.6787 13.2643 46.6658 13.6515 46.6658 15.9092C46.6658 17.7228 47.9783 18.7563 49.8687 18.7563C51.147 18.7563 51.9414 18.3007 52.5107 17.5662ZM50.6449 14.4979C51.3639 14.3717 52.0159 14.2573 52.3883 13.9761V15.0353C52.3883 16.4189 51.3919 17.0139 50.3242 17.0139C49.4644 17.0139 48.8694 16.6295 48.8694 15.8067C48.8694 14.9127 49.5527 14.6935 50.3755 14.5455C50.466 14.5292 50.5559 14.5135 50.6449 14.4979Z" fill="white"/>
<path d="M56.5872 16.1882C56.664 16.0988 56.7725 16.0426 56.8898 16.0315C57.0072 16.0204 57.1242 16.0551 57.2165 16.1285C57.9777 16.7033 58.9106 17.0042 59.8642 16.9826C60.8464 16.9826 61.5724 16.6666 61.5724 15.8978C61.5724 15.1975 60.9062 15.058 59.2948 14.7761C57.5866 14.4914 55.9524 13.922 55.9524 11.9747C55.9524 9.94467 57.7033 9.08786 59.6991 9.08786C60.9506 9.06931 62.1723 9.47015 63.1696 10.2265C63.2182 10.2646 63.2586 10.3122 63.2883 10.3665C63.318 10.4207 63.3363 10.4804 63.3422 10.5419C63.348 10.6034 63.3413 10.6655 63.3224 10.7244C63.3035 10.7832 63.2728 10.8376 63.2322 10.8842L62.6628 11.5533C62.5873 11.643 62.4803 11.7004 62.3638 11.7136C62.2473 11.7269 62.1302 11.695 62.0365 11.6245C61.3349 11.1113 60.4857 10.8395 59.6165 10.8501C58.7766 10.8501 58.0421 11.095 58.0421 11.7583C58.0421 12.4957 59.0727 12.6351 60.1062 12.8116C62.3126 13.196 63.7134 13.8252 63.7134 15.6587C63.7134 17.5833 62.1731 18.7733 59.7276 18.7733C58.3909 18.8142 57.0819 18.3873 56.0264 17.5662C55.9791 17.5274 55.9399 17.4796 55.9112 17.4255C55.8825 17.3715 55.8649 17.3123 55.8593 17.2513C55.8538 17.1904 55.8604 17.1289 55.8788 17.0706C55.8972 17.0122 55.9271 16.9581 55.9666 16.9114L56.5872 16.1882ZM65.0657 18.09V6.50257C65.0657 6.44275 65.0775 6.38352 65.1004 6.32825C65.1233 6.27298 65.1568 6.22276 65.1991 6.18046C65.2414 6.13816 65.2916 6.1046 65.3469 6.08171C65.4021 6.05881 65.4614 6.04703 65.5212 6.04703H66.8337C67.0853 6.04703 67.2893 6.25099 67.2893 6.50257V10.46C67.616 10.0239 68.0424 9.67232 68.5327 9.43458C69.023 9.19684 69.5631 9.07983 70.1078 9.09332C72.0495 9.09332 73.1882 10.477 73.1882 12.4529V18.09C73.1882 18.1498 73.1765 18.209 73.1536 18.2643C73.1307 18.3196 73.0972 18.3698 73.0549 18.4121C73.0126 18.4544 72.9623 18.488 72.9071 18.5108C72.8518 18.5337 72.7926 18.5455 72.7328 18.5455H71.4203C71.2994 18.5455 71.1836 18.4975 71.0981 18.4121C71.0127 18.3267 70.9647 18.2108 70.9647 18.09V12.9653C70.9647 11.9831 70.6487 11.092 69.3903 11.092C68.1975 11.092 67.2893 11.932 67.2893 13.3326V18.0928C67.2893 18.2136 67.2413 18.3295 67.1558 18.4149C67.0704 18.5003 66.9545 18.5483 66.8337 18.5483H65.5212C65.461 18.5487 65.4014 18.5371 65.3458 18.5141C65.2902 18.4912 65.2397 18.4574 65.1973 18.4147C65.1549 18.3721 65.1214 18.3214 65.0988 18.2656C65.0762 18.2098 65.065 18.1501 65.0657 18.09Z" fill="white"/>
<path fill-rule="evenodd" clip-rule="evenodd" d="M86.6867 15.4479L87.6318 18.238C87.6603 18.3288 87.7166 18.4084 87.7926 18.4656C87.8686 18.5228 87.9607 18.5547 88.0558 18.5569H89.6819C89.7553 18.5572 89.8277 18.5398 89.8928 18.506C89.958 18.4723 90.014 18.4233 90.0561 18.3631C90.0985 18.3031 90.1256 18.2336 90.1353 18.1608C90.1449 18.0879 90.1368 18.0138 90.1115 17.9448L85.8267 6.35737C85.7938 6.26988 85.7351 6.19444 85.6584 6.14106C85.5817 6.08767 85.4905 6.05885 85.3971 6.05841H83.2932C83.2016 6.05733 83.1118 6.08394 83.0356 6.13475C82.9593 6.18555 82.9002 6.25819 82.866 6.34316L78.5639 17.9334C78.5387 18.0022 78.5305 18.076 78.5399 18.1486C78.5494 18.2212 78.5762 18.2905 78.6181 18.3506C78.66 18.4106 78.7157 18.4597 78.7806 18.4936C78.8455 18.5276 78.9177 18.5454 78.9909 18.5455H80.5308C80.6257 18.5458 80.7183 18.5163 80.7956 18.4611C80.8728 18.406 80.9308 18.3279 80.9612 18.238L81.9088 15.4479H86.6867ZM82.4845 13.5034L84.3234 8.07701L86.0917 13.5034H82.4845ZM93.4111 10.477V9.75956C93.4143 9.69783 93.4049 9.63609 93.3833 9.57815C93.3618 9.52022 93.3286 9.46731 93.2858 9.42269C93.2433 9.37798 93.1921 9.3424 93.1353 9.3181C93.0786 9.2938 93.0175 9.2813 92.9558 9.28136H91.6428C91.3915 9.28136 91.1875 9.48533 91.1875 9.73683V21.1249C91.1875 21.3765 91.3915 21.5805 91.6428 21.5805H92.9558C93.2071 21.5805 93.4111 21.3765 93.4111 21.1249V17.3469C93.7323 17.7982 94.1608 18.1625 94.6578 18.4071C95.1549 18.6516 95.705 18.7686 96.2585 18.7476C98.7776 18.7476 100.406 16.6381 100.406 13.9077C100.406 11.1775 98.7776 9.09338 96.2585 9.09338C95.7066 9.07104 95.1577 9.18571 94.6608 9.42715C94.164 9.66859 93.7346 10.0293 93.4111 10.477ZM98.0685 13.9077C98.0685 15.4993 97.3314 16.8146 95.7912 16.8146C94.2229 16.8146 93.4111 15.502 93.4111 13.9077C93.4111 12.3134 94.2655 11.0351 95.7912 11.0351C97.3169 11.0351 98.0685 12.3163 98.0685 13.9077ZM104.002 10.477V9.75948C104.005 9.69771 103.996 9.63587 103.975 9.57777C103.954 9.51967 103.921 9.46653 103.878 9.42165C103.836 9.37684 103.784 9.34126 103.727 9.3171C103.67 9.29295 103.609 9.28073 103.547 9.2812H102.234C102.113 9.28125 101.997 9.32925 101.912 9.41466C101.826 9.50008 101.778 9.6159 101.778 9.73667V21.1249C101.778 21.3764 101.982 21.5803 102.234 21.5803H103.547C103.798 21.5803 104.002 21.3764 104.002 21.1249V17.3468C104.324 17.7977 104.752 18.1617 105.249 18.4061C105.746 18.6506 106.296 18.7679 106.849 18.7475C109.372 18.7475 111 16.6379 111 13.9076C111 11.1773 109.372 9.0933 106.849 9.0933C106.298 9.07144 105.749 9.18632 105.252 9.42772C104.755 9.66912 104.326 10.0296 104.002 10.477ZM108.663 13.9076C108.663 15.4991 107.925 16.8145 106.385 16.8145C104.825 16.8145 104.002 15.5019 104.002 13.9076C104.002 12.3133 104.859 11.035 106.385 11.035C107.911 11.035 108.663 12.3161 108.663 13.9076Z" fill="white"/>
<path fill-rule="evenodd" clip-rule="evenodd" d="M16.0231 0C18.5057 0 19.7271 0 21.068 0.421338C21.7877 0.681932 22.4412 1.09753 22.9824 1.63872C23.5236 2.17991 23.9392 2.83345 24.1998 3.55307C24.6211 4.88269 24.6211 6.11547 24.6211 8.58665V16.0231C24.6211 18.4915 24.6211 19.7242 24.1998 21.0566C23.9392 21.7763 23.5236 22.4298 22.9824 22.971C22.4412 23.5122 21.7877 23.9278 21.068 24.1884C19.7384 24.6097 18.5057 24.6097 16.0345 24.6097H8.57524C6.10688 24.6097 4.87418 24.6097 3.54167 24.1884C2.82204 23.9278 2.16851 23.5122 1.62732 22.971C1.08613 22.4298 0.67053 21.7763 0.409936 21.0566C0 19.727 0 18.5056 0 16.0231V8.57532C0 6.10688 0 4.87426 0.421338 3.54167C0.681923 2.82204 1.09752 2.16849 1.63871 1.62731C2.1799 1.08612 2.83344 0.67052 3.55307 0.409936C4.87129 0 6.10688 0 8.57532 0H16.0231Z" fill="#00D54B"/>
<path d="M12.9254 8.06574C14.1349 8.0676 15.3047 8.4972 16.2279 9.27852C16.3233 9.36491 16.448 9.41157 16.5767 9.40893C16.7053 9.40629 16.828 9.35454 16.9197 9.26431L17.8706 8.31058C17.9183 8.26327 17.9557 8.2066 17.9805 8.14414C18.0052 8.08167 18.0167 8.01477 18.0143 7.94763C18.0119 7.88049 17.9956 7.81458 17.9665 7.75405C17.9373 7.69352 17.896 7.63967 17.845 7.5959C17.0982 6.96061 16.2346 6.47711 15.3026 6.17249L15.5874 4.76883C15.6021 4.6967 15.6007 4.62218 15.583 4.55069C15.5654 4.47921 15.532 4.41255 15.4854 4.35556C15.4388 4.29858 15.38 4.2527 15.3135 4.22126C15.2469 4.18981 15.1741 4.1736 15.1005 4.1738H13.2699C13.1565 4.17369 13.0464 4.21229 12.9579 4.28322C12.8693 4.35415 12.8077 4.45317 12.783 4.5639L12.5268 5.8194C10.0897 5.93905 8.0228 7.14613 8.0228 9.6202C8.0228 11.7583 9.73104 12.6779 11.536 13.3213C13.2442 13.9562 14.1496 14.1926 14.1496 15.0865C14.1496 15.9804 13.2471 16.5441 11.9175 16.5441C10.6273 16.5648 9.38069 16.077 8.44703 15.1863C8.35438 15.0951 8.22963 15.0441 8.09969 15.0441C7.96974 15.0441 7.845 15.0951 7.75234 15.1863L6.73309 16.1825C6.68547 16.2285 6.64759 16.2835 6.62172 16.3444C6.59585 16.4053 6.58252 16.4708 6.58252 16.537C6.58252 16.6032 6.59585 16.6686 6.62172 16.7295C6.64759 16.7904 6.68547 16.8455 6.73309 16.8914C7.56354 17.6693 8.57715 18.2246 9.67972 18.5057L9.39506 19.8068C9.38 19.8795 9.3811 19.9546 9.39828 20.0269C9.41545 20.0991 9.44829 20.1666 9.49446 20.2248C9.54062 20.2829 9.599 20.3302 9.66546 20.3632C9.73191 20.3963 9.80482 20.4144 9.87903 20.4162H11.7154C11.8297 20.4168 11.9407 20.3781 12.0299 20.3065C12.1191 20.235 12.1809 20.135 12.2051 20.0233L12.4699 18.7905C15.3909 18.6111 17.176 17.0396 17.176 14.7391C17.176 12.621 15.3966 11.7271 13.2357 10.9982C12.0001 10.5341 10.9324 10.2294 10.9324 9.31273C10.9324 8.39602 11.9289 8.06574 12.9254 8.06574Z" fill="white"/>
</svg>
