<svg width="18" height="18" viewBox="0 0 18 18" fill="none" xmlns="http://www.w3.org/2000/svg">
<path d="M9 0C9.19891 0 9.38968 0.0790176 9.53033 0.21967C9.67098 0.360322 9.75 0.551088 9.75 0.75C9.75 0.948912 9.67098 1.13968 9.53033 1.28033C9.38968 1.42098 9.19891 1.5 9 1.5C4.85775 1.5 1.5 4.85775 1.5 9C1.5 13.1422 4.85775 16.5 9 16.5C10.8165 16.5028 12.5718 15.8434 13.9373 14.6452C14.0869 14.5142 14.2826 14.4479 14.4811 14.4611C14.6796 14.4742 14.8648 14.5657 14.9959 14.7154C15.127 14.8651 15.1932 15.0607 15.1801 15.2592C15.1669 15.4577 15.0754 15.6429 14.9257 15.774C13.2867 17.2116 11.1802 18.0029 9 18C4.02975 18 0 13.9702 0 9C0 4.02975 4.02975 0 9 0Z" fill="#0577FB"/>
<path d="M9.75 3.75C9.75 3.55109 9.67098 3.36032 9.53033 3.21967C9.38968 3.07902 9.19891 3 9 3C8.80109 3 8.61032 3.07902 8.46967 3.21967C8.32902 3.36032 8.25 3.55109 8.25 3.75V9C8.25004 9.1989 8.32909 9.38963 8.46975 9.53025L11.0948 12.1553C11.2362 12.2919 11.4257 12.3675 11.6223 12.3658C11.8189 12.364 12.0071 12.2852 12.1461 12.1461C12.2852 12.0071 12.364 11.8189 12.3658 11.6223C12.3675 11.4257 12.2919 11.2362 12.1553 11.0948L9.75 8.6895V3.75Z" fill="#0577FB"/>
<path d="M16.5263 12.4755C16.441 12.4255 16.3466 12.3928 16.2486 12.3794C16.1506 12.366 16.0509 12.3721 15.9553 12.3974C15.8596 12.4227 15.77 12.4666 15.6914 12.5267C15.6128 12.5868 15.5469 12.6618 15.4975 12.7475C15.448 12.8331 15.416 12.9277 15.4032 13.0258C15.3905 13.1239 15.3973 13.2235 15.4232 13.319C15.4491 13.4145 15.4936 13.5038 15.5542 13.582C15.6148 13.6602 15.6903 13.7256 15.7763 13.7745C15.9484 13.8724 16.1523 13.8982 16.3435 13.8463C16.5346 13.7944 16.6975 13.669 16.7965 13.4975C16.8955 13.326 16.9227 13.1223 16.8721 12.9308C16.8214 12.7393 16.6971 12.5756 16.5263 12.4755Z" fill="#0577FB"/>
<path d="M16.3928 10.302C16.4099 10.205 16.446 10.1123 16.499 10.0292C16.5519 9.94616 16.6207 9.87433 16.7014 9.81785C16.7822 9.76137 16.8732 9.72134 16.9694 9.70004C17.0656 9.67875 17.165 9.67661 17.262 9.69375C17.3591 9.71089 17.4517 9.74697 17.5348 9.79992C17.6179 9.85288 17.6897 9.92168 17.7462 10.0024C17.8027 10.0831 17.8427 10.1742 17.864 10.2704C17.8853 10.3665 17.8874 10.466 17.8703 10.563C17.8357 10.7589 17.7247 10.9331 17.5616 11.0472C17.3986 11.1612 17.197 11.2059 17.001 11.1712C16.8051 11.1366 16.631 11.0256 16.5169 10.8626C16.4028 10.6996 16.3582 10.4979 16.3928 10.302Z" fill="#0577FB"/>
<path d="M17.0011 6.82876C16.9041 6.84585 16.8114 6.88188 16.7283 6.93479C16.6452 6.9877 16.5734 7.05646 16.5168 7.13715C16.4603 7.21783 16.4203 7.30885 16.3989 7.40502C16.3776 7.50119 16.3754 7.60062 16.3925 7.69763C16.4096 7.79465 16.4456 7.88735 16.4985 7.97044C16.5514 8.05353 16.6202 8.12538 16.7009 8.1819C16.7815 8.23841 16.8726 8.27848 16.9687 8.29982C17.0649 8.32116 17.1643 8.32335 17.2614 8.30626C17.4573 8.27175 17.6315 8.16082 17.7456 7.99787C17.8598 7.83493 17.9045 7.63331 17.87 7.43738C17.8355 7.24146 17.7245 7.06726 17.5616 6.95312C17.3986 6.83898 17.197 6.79425 17.0011 6.82876Z" fill="#0577FB"/>
<path d="M15.5018 5.25C15.449 5.16462 15.4139 5.0695 15.3985 4.97029C15.3831 4.87108 15.3878 4.7698 15.4123 4.67243C15.4368 4.57507 15.4806 4.48362 15.5411 4.40349C15.6016 4.32337 15.6775 4.25621 15.7645 4.20599C15.8514 4.15577 15.9475 4.12351 16.0472 4.11113C16.1468 4.09875 16.2479 4.1065 16.3445 4.13392C16.4411 4.16134 16.5311 4.20787 16.6094 4.27075C16.6877 4.33363 16.7525 4.41159 16.8001 4.5C16.898 4.67216 16.9238 4.87606 16.8719 5.06719C16.82 5.25833 16.6946 5.42117 16.5231 5.5202C16.3516 5.61923 16.1479 5.6464 15.9564 5.59577C15.7649 5.54515 15.6013 5.42085 15.5011 5.25H15.5018Z" fill="#0577FB"/>
<path d="M13.7347 2.19749C13.6713 2.27294 13.6235 2.36012 13.5938 2.45405C13.5642 2.54799 13.5534 2.64684 13.5619 2.74497C13.5705 2.8431 13.5983 2.93858 13.6438 3.02596C13.6892 3.11334 13.7515 3.19091 13.8269 3.25424C13.9024 3.31757 13.9895 3.36542 14.0835 3.39506C14.1774 3.4247 14.2763 3.43554 14.3744 3.42698C14.4725 3.41841 14.568 3.3906 14.6554 3.34514C14.7428 3.29967 14.8203 3.23744 14.8837 3.16199C15.0066 3.00907 15.0647 2.81407 15.0455 2.61882C15.0263 2.42356 14.9314 2.2436 14.7811 2.11751C14.6307 1.99143 14.437 1.92927 14.2414 1.94436C14.0458 1.95945 13.8639 2.04985 13.7347 2.19749Z" fill="#0577FB"/>
<path d="M11.5718 1.95222C11.3849 1.88419 11.2326 1.74467 11.1485 1.56436C11.0643 1.38404 11.0553 1.1777 11.1233 0.990721C11.1914 0.803743 11.3309 0.651448 11.5112 0.567338C11.6915 0.483228 11.8979 0.474193 12.0848 0.542221C12.2718 0.610249 12.4241 0.749767 12.5082 0.930084C12.5923 1.1104 12.6014 1.31674 12.5333 1.50372C12.4653 1.6907 12.3258 1.84299 12.1455 1.9271C11.9652 2.01121 11.7588 2.02025 11.5718 1.95222Z" fill="#0577FB"/>
</svg>
