<svg width="31" height="31" viewBox="0 0 31 31" fill="none" xmlns="http://www.w3.org/2000/svg">
<path fill-rule="evenodd" clip-rule="evenodd" d="M0.0830078 15.5C0.0830078 6.98542 6.98505 0.083374 15.4997 0.083374C24.0143 0.083374 30.9163 6.98542 30.9163 15.5C30.9163 24.0147 24.0143 30.9167 15.4997 30.9167C6.98505 30.9167 0.0830078 24.0147 0.0830078 15.5ZM14.7273 7.86879C14.7273 7.54169 14.8572 7.22799 15.0885 6.99669C15.3198 6.7654 15.6335 6.63546 15.9606 6.63546C16.2877 6.63546 16.6014 6.7654 16.8327 6.99669C17.064 7.22799 17.194 7.54169 17.194 7.86879V8.33129H17.234C18.3482 8.33129 19.4168 8.7739 20.2046 9.56175C20.9925 10.3496 21.4351 11.4181 21.4351 12.5323C21.4351 12.8594 21.3052 13.1731 21.0739 13.4044C20.8426 13.6357 20.5289 13.7657 20.2018 13.7657C19.8747 13.7657 19.561 13.6357 19.3297 13.4044C19.0984 13.1731 18.9684 12.8594 18.9684 12.5323C18.9684 11.575 18.1914 10.798 17.234 10.798H17.194V14.5211L18.3502 14.7909C19.3037 15.0138 20.1419 15.5795 20.7055 16.3802C21.269 17.181 21.5186 18.1609 21.4067 19.1337C21.2947 20.1064 20.8291 21.0041 20.0984 21.6559C19.3677 22.3078 18.4229 22.6682 17.4437 22.6688H17.1955V23.1313C17.1955 23.4584 17.0656 23.7721 16.8343 24.0034C16.603 24.2347 16.2893 24.3646 15.9622 24.3646C15.6351 24.3646 15.3214 24.2347 15.0901 24.0034C14.8588 23.7721 14.7288 23.4584 14.7288 23.1313V22.6688H14.6918C13.5777 22.6688 12.5091 22.2262 11.7213 21.4383C10.9334 20.6505 10.4908 19.5819 10.4908 18.4677C10.4908 18.1406 10.6207 17.8269 10.852 17.5957C11.0833 17.3644 11.397 17.2344 11.7241 17.2344C12.0512 17.2344 12.3649 17.3644 12.5962 17.5957C12.8275 17.8269 12.9575 18.1406 12.9575 18.4677C12.9575 19.4251 13.7345 20.2021 14.6918 20.2021H14.7288V16.479L13.5757 16.2092C12.6222 15.9863 11.784 15.4206 11.2204 14.6199C10.6568 13.8191 10.4073 12.8392 10.5192 11.8664C10.6312 10.8936 11.0968 9.99596 11.8275 9.34414C12.5582 8.69232 13.503 8.33185 14.4822 8.33129H14.7288V7.86879H14.7273Z" fill="#FDDA2F"/>
</svg>
