<svg width="18" height="18" viewBox="0 0 18 18" fill="none" xmlns="http://www.w3.org/2000/svg">
<path fill-rule="evenodd" clip-rule="evenodd" d="M14.4053 2.09474C14.1879 1.87735 13.9299 1.70491 13.6458 1.58726C13.3618 1.46961 13.0574 1.40906 12.75 1.40906C12.4426 1.40906 12.1382 1.46961 11.8542 1.58726C11.5702 1.70491 11.3121 1.87735 11.0948 2.09474L4.26377 8.92574C3.97513 9.21407 3.77033 9.57547 3.67127 9.97124L3.02252 12.5685C2.9912 12.6941 2.99293 12.8257 3.02756 12.9505C3.06219 13.0753 3.12854 13.1889 3.22013 13.2805C3.31173 13.372 3.42546 13.4382 3.55025 13.4728C3.67505 13.5073 3.80666 13.5089 3.93227 13.4775L6.52877 12.8287C6.92455 12.7297 7.28595 12.5249 7.57427 12.2362L14.4053 5.40524C14.6227 5.18788 14.7951 4.92982 14.9127 4.64581C15.0304 4.3618 15.0909 4.0574 15.0909 3.74999C15.0909 3.44257 15.0304 3.13817 14.9127 2.85416C14.7951 2.57015 14.6227 2.3121 14.4053 2.09474ZM12.1553 3.15524C12.313 2.9975 12.5269 2.90888 12.75 2.90888C12.9731 2.90888 13.187 2.9975 13.3448 3.15524C13.5025 3.31297 13.5911 3.52691 13.5911 3.74999C13.5911 3.97306 13.5025 4.187 13.3448 4.34474L6.51377 11.1757C6.41756 11.2719 6.297 11.3401 6.16502 11.373L4.78052 11.7195L5.12702 10.335C5.16005 10.2033 5.22823 10.083 5.32427 9.98699L12.1553 3.15524Z" fill="#0577FB"/>
<path d="M3.75 15C3.55109 15 3.36032 15.079 3.21967 15.2197C3.07902 15.3603 3 15.5511 3 15.75C3 15.9489 3.07902 16.1397 3.21967 16.2803C3.36032 16.421 3.55109 16.5 3.75 16.5H14.25C14.4489 16.5 14.6397 16.421 14.7803 16.2803C14.921 16.1397 15 15.9489 15 15.75C15 15.5511 14.921 15.3603 14.7803 15.2197C14.6397 15.079 14.4489 15 14.25 15H3.75Z" fill="#0577FB"/>
</svg>
