<svg width="25" height="25" viewBox="0 0 25 25" fill="none" xmlns="http://www.w3.org/2000/svg">
<path fill-rule="evenodd" clip-rule="evenodd" d="M22.6477 9.04877C21.0126 8.67196 19.5165 7.8429 18.3302 6.65627C17.1322 5.46547 16.2977 3.95851 15.9239 2.31127L15.9102 2.29752L15.4839 0.455018C17.0102 0.166269 18.4677 0.111268 19.7464 0.290018C21.0389 0.468768 22.2902 0.908768 23.1427 1.77502C23.9952 2.62752 24.4352 3.87877 24.6277 5.17127C24.7927 6.42252 24.7514 7.86627 24.4764 9.36502L22.5927 9.00752L22.6477 9.04877ZM5.68018 5.68002C7.83893 3.50752 10.3689 2.05002 12.8439 1.18377L13.2289 2.90252C13.6002 4.55252 14.3427 6.14752 15.4427 7.55002L13.9164 9.06252L12.9402 8.08627L10.9877 10.025L11.9502 10.9875L10.9739 11.95L9.99768 10.9738L8.04518 12.9125L9.00768 13.875L7.48143 15.3875C6.11648 14.3015 4.52261 13.5398 2.82018 13.16C2.77893 13.1463 2.75143 13.1463 2.72393 13.1325L1.03268 12.8575C1.88518 10.3413 3.37018 7.77002 5.55643 5.57002L5.68018 5.68002ZM0.441428 15.6213C0.166428 17.0925 0.125178 18.5225 0.290178 19.76C0.468928 21.0525 0.908928 22.3038 1.77518 23.1563C2.62768 24.0088 3.87893 24.4488 5.17143 24.6413C6.42268 24.8063 7.86643 24.765 9.36518 24.49L9.00768 22.6063C8.63087 20.9712 7.8018 19.4751 6.61518 18.2888C5.37768 17.0513 3.87893 16.2538 2.31143 15.8963L0.400178 15.5938L0.441428 15.6213ZM12.0464 23.7888C14.5352 22.9225 17.0927 21.4375 19.2652 19.265C21.4377 17.0788 22.9089 14.5213 23.7752 12.0188L22.0702 11.7025C22.0427 11.6888 22.0289 11.6888 22.0152 11.6888C20.3168 11.2972 18.7255 10.5367 17.3539 9.46127L15.8277 10.9738L16.7902 11.9363L14.8377 13.875L13.8614 12.8988L12.8852 13.8613L13.8477 14.8238L11.8952 16.7625L10.9189 15.7863L9.39268 17.2988C10.4927 18.6875 11.2352 20.2825 11.6064 21.9463V21.9875L11.9227 23.6788L12.0464 23.7888Z" fill="white"/>
</svg>
