<svg width="18" height="18" viewBox="0 0 18 18" fill="none" xmlns="http://www.w3.org/2000/svg">
<path d="M6 7.2045C5.99987 6.66142 6.14717 6.1285 6.42616 5.66257C6.70516 5.19665 7.10541 4.81519 7.5842 4.5589C8.06299 4.3026 8.60237 4.18108 9.14481 4.20729C9.68725 4.23351 10.2124 4.40648 10.6642 4.70775L10.7955 4.7955C11.2466 5.09554 11.5972 5.5242 11.8018 6.02589C12.0063 6.52757 12.0555 7.07915 11.9428 7.60909C11.8301 8.13904 11.5608 8.62291 11.1698 8.99796C10.7788 9.37302 10.2842 9.62195 9.75 9.7125V10.5C9.75 10.6989 9.67098 10.8897 9.53033 11.0303C9.38968 11.171 9.19891 11.25 9 11.25C8.80109 11.25 8.61032 11.171 8.46967 11.0303C8.32902 10.8897 8.25 10.6989 8.25 10.5V9.20475C8.25 8.6775 8.6775 8.25 9.20475 8.25H9.2955C9.55376 8.24971 9.80508 8.16643 10.0124 8.01244C10.2197 7.85845 10.3721 7.6419 10.4469 7.39473C10.5218 7.14757 10.5153 6.88289 10.4283 6.63973C10.3413 6.39657 10.1784 6.18781 9.96375 6.04425L9.83175 5.95575C9.6058 5.80519 9.34323 5.71879 9.07204 5.70575C8.80084 5.69271 8.53119 5.75353 8.29184 5.88171C8.0525 6.00989 7.85243 6.20063 7.71298 6.43359C7.57352 6.66655 7.49991 6.93299 7.5 7.2045V7.5C7.5 7.69891 7.42098 7.88967 7.28033 8.03033C7.13968 8.17098 6.94891 8.25 6.75 8.25C6.55109 8.25 6.36032 8.17098 6.21967 8.03033C6.07902 7.88967 6 7.69891 6 7.5V7.2045Z" fill="#0577FB"/>
<path d="M9.75 12.75C9.75 12.9489 9.67098 13.1397 9.53033 13.2803C9.38968 13.421 9.19891 13.5 9 13.5C8.80109 13.5 8.61032 13.421 8.46967 13.2803C8.32902 13.1397 8.25 12.9489 8.25 12.75C8.25 12.5511 8.32902 12.3603 8.46967 12.2197C8.61032 12.079 8.80109 12 9 12C9.19891 12 9.38968 12.079 9.53033 12.2197C9.67098 12.3603 9.75 12.5511 9.75 12.75Z" fill="#0577FB"/>
<path fill-rule="evenodd" clip-rule="evenodd" d="M9 1.5C4.85775 1.5 1.5 4.85775 1.5 9C1.5 13.1423 4.85775 16.5 9 16.5C13.1423 16.5 16.5 13.1423 16.5 9C16.5 4.85775 13.1423 1.5 9 1.5ZM3 9C3 7.4087 3.63214 5.88258 4.75736 4.75736C5.88258 3.63214 7.4087 3 9 3C10.5913 3 12.1174 3.63214 13.2426 4.75736C14.3679 5.88258 15 7.4087 15 9C15 10.5913 14.3679 12.1174 13.2426 13.2426C12.1174 14.3679 10.5913 15 9 15C7.4087 15 5.88258 14.3679 4.75736 13.2426C3.63214 12.1174 3 10.5913 3 9Z" fill="#0577FB"/>
</svg>
