<svg width="20" height="20" viewBox="0 0 20 20" fill="none" xmlns="http://www.w3.org/2000/svg">
<path fill-rule="evenodd" clip-rule="evenodd" d="M8.16935 12.7105C8.68975 13.0632 9.32398 13.2766 9.99886 13.2766C11.7877 13.2766 13.2432 11.808 13.2432 10.0031C13.2432 9.32211 13.0318 8.68218 12.6821 8.15711L11.7958 9.05137C11.9422 9.33032 12.0235 9.65849 12.0235 10.0031C12.0235 11.127 11.1128 12.0459 9.99886 12.0459C9.65735 12.0459 9.33211 11.9639 9.05565 11.8162L8.16935 12.7105ZM15.3573 5.45792C16.5363 6.54088 17.5364 8.00123 18.2845 9.75694C18.3496 9.91282 18.3496 10.0933 18.2845 10.241C16.5444 14.3267 13.4465 16.7716 9.99886 16.7716H9.99073C8.42142 16.7716 6.91716 16.2547 5.59178 15.3112L4.01433 16.9028C3.89237 17.0259 3.73787 17.0833 3.58338 17.0833C3.42889 17.0833 3.26627 17.0259 3.15243 16.9028C2.94915 16.6977 2.91663 16.3696 3.07925 16.1316L3.10364 16.0988L15.1296 3.96475C15.1459 3.94834 15.1621 3.93193 15.1703 3.91552L15.1703 3.91552C15.1865 3.89911 15.2028 3.8827 15.2109 3.8663L15.9753 3.0951C16.2192 2.85718 16.6014 2.85718 16.8372 3.0951C17.0811 3.33302 17.0811 3.72682 16.8372 3.96475L15.3573 5.45792ZM6.7486 10.0063C6.7486 10.2196 6.77299 10.4329 6.80551 10.6298L3.79699 13.6654C2.98387 12.7137 2.27646 11.5651 1.71541 10.2442C1.65036 10.0965 1.65036 9.91602 1.71541 9.76014C3.45548 5.67443 6.55345 3.23777 9.99293 3.23777H10.0011C11.1638 3.23777 12.294 3.51671 13.3348 4.04179L10.619 6.782C10.4239 6.74918 10.2125 6.72457 10.0011 6.72457C8.20407 6.72457 6.7486 8.19313 6.7486 10.0063Z" fill="#9E9E9E"/>
</svg>
