<svg width="18" height="18" viewBox="0 0 18 18" fill="none" xmlns="http://www.w3.org/2000/svg">
<path d="M11.8125 12.75V13.5C11.8566 13.88 11.8141 14.265 11.6884 14.6263C11.5626 14.9876 11.3568 15.3157 11.0863 15.5862C10.8158 15.8567 10.4876 16.0626 10.1263 16.1883C9.76506 16.3141 9.38002 16.3565 9.00003 16.3125H4.50003C4.12003 16.3565 3.735 16.3141 3.37372 16.1883C3.01245 16.0626 2.68429 15.8567 2.4138 15.5862C2.1433 15.3157 1.93747 14.9876 1.8117 14.6263C1.68593 14.265 1.64348 13.88 1.68753 13.5V4.5C1.64348 4.12 1.68593 3.73497 1.8117 3.37369C1.93747 3.01242 2.1433 2.68426 2.4138 2.41377C2.68429 2.14327 3.01245 1.93744 3.37372 1.81167C3.735 1.6859 4.12003 1.64345 4.50003 1.6875H9.00003C9.38002 1.64345 9.76506 1.6859 10.1263 1.81167C10.4876 1.93744 10.8158 2.14327 11.0863 2.41377C11.3568 2.68426 11.5626 3.01242 11.6884 3.37369C11.8141 3.73497 11.8566 4.12 11.8125 4.5V5.25C11.8125 5.39918 11.7533 5.54226 11.6478 5.64774C11.5423 5.75323 11.3992 5.8125 11.25 5.8125C11.1008 5.8125 10.9578 5.75323 10.8523 5.64774C10.7468 5.54226 10.6875 5.39918 10.6875 5.25V4.5C10.6875 3.31725 10.1828 2.8125 9.00003 2.8125H4.50003C3.31728 2.8125 2.81253 3.31725 2.81253 4.5V13.5C2.81253 14.6827 3.31728 15.1875 4.50003 15.1875H9.00003C10.1828 15.1875 10.6875 14.6827 10.6875 13.5V12.75C10.6875 12.6008 10.7468 12.4577 10.8523 12.3522C10.9578 12.2468 11.1008 12.1875 11.25 12.1875C11.3992 12.1875 11.5423 12.2468 11.6478 12.3522C11.7533 12.4577 11.8125 12.6008 11.8125 12.75ZM16.269 9.21525C16.326 9.07741 16.326 8.92259 16.269 8.78475C16.2406 8.71654 16.1993 8.65442 16.1475 8.60175L13.8975 6.35175C13.7909 6.25239 13.6499 6.19829 13.5041 6.20087C13.3584 6.20344 13.2194 6.26247 13.1163 6.36553C13.0133 6.46859 12.9542 6.60763 12.9516 6.75336C12.9491 6.89908 13.0032 7.04012 13.1025 7.14675L14.3918 8.43675H6.00003C5.85084 8.43675 5.70777 8.49601 5.60228 8.6015C5.49679 8.70699 5.43753 8.85006 5.43753 8.99925C5.43753 9.14843 5.49679 9.29151 5.60228 9.39699C5.70777 9.50248 5.85084 9.56175 6.00003 9.56175H14.3918L13.1025 10.8525C13.0473 10.904 13.0029 10.9661 12.9722 11.0351C12.9414 11.1041 12.9249 11.1786 12.9236 11.2541C12.9223 11.3296 12.9361 11.4047 12.9644 11.4747C12.9927 11.5447 13.0348 11.6084 13.0882 11.6618C13.1417 11.7152 13.2053 11.7573 13.2753 11.7856C13.3454 11.8139 13.4204 11.8278 13.4959 11.8264C13.5714 11.8251 13.6459 11.8086 13.7149 11.7778C13.7839 11.7471 13.846 11.7028 13.8975 11.6475L16.1475 9.3975C16.1993 9.34504 16.2405 9.28318 16.269 9.21525Z" fill="#FF5F5F"/>
</svg>
