<svg width="21" height="21" viewBox="0 0 21 21" fill="none" xmlns="http://www.w3.org/2000/svg">
<g clip-path="url(#clip0_1_3432)">
<path fill-rule="evenodd" clip-rule="evenodd" d="M13.8471 10.5313C13.8471 11.4115 13.4975 12.2556 12.8751 12.878C12.2527 13.5004 11.4086 13.85 10.5284 13.85C9.64818 13.85 8.80403 13.5004 8.18164 12.878C7.55925 12.2556 7.20959 11.4115 7.20959 10.5313C7.20959 9.65108 7.55925 8.80693 8.18164 8.18454C8.80403 7.56215 9.64818 7.21249 10.5284 7.21249C11.4086 7.21249 12.2527 7.56215 12.8751 8.18454C13.4975 8.80693 13.8471 9.65108 13.8471 10.5313ZM12.1878 10.5313C12.1878 10.9714 12.0129 11.3934 11.7017 11.7046C11.3905 12.0158 10.9685 12.1907 10.5284 12.1907C10.0883 12.1907 9.6662 12.0158 9.35501 11.7046C9.04381 11.3934 8.86898 10.9714 8.86898 10.5313C8.86898 10.0912 9.04381 9.6691 9.35501 9.35791C9.6662 9.04671 10.0883 8.87188 10.5284 8.87188C10.9685 8.87188 11.3905 9.04671 11.7017 9.35791C12.0129 9.6691 12.1878 10.0912 12.1878 10.5313Z" fill="#054BC7"/>
<path fill-rule="evenodd" clip-rule="evenodd" d="M19.9918 3.96507C15.9745 2.17957 13.0224 3.08808 10.3143 3.92109L10.2844 3.93022C7.60783 4.75411 5.17351 5.4917 1.73857 3.96507C1.61224 3.90894 1.47389 3.88527 1.33609 3.89621C1.19829 3.90714 1.06541 3.95233 0.949507 4.02767C0.833609 4.10302 0.738372 4.20612 0.672449 4.32762C0.606525 4.44913 0.572004 4.58517 0.572021 4.72341V16.3391C0.572001 16.4997 0.618552 16.6568 0.706029 16.7914C0.793507 16.926 0.918154 17.0323 1.06486 17.0975C4.97853 18.8365 7.89573 17.8218 10.5068 16.9141L10.7997 16.8121C12.1521 16.3441 13.3958 15.9434 14.7391 15.8845C16.0558 15.8264 17.5127 16.0977 19.2526 17.0643C19.3789 17.1343 19.5212 17.1702 19.6656 17.1683C19.81 17.1665 19.9514 17.127 20.0758 17.0537C20.2003 16.9805 20.3034 16.8761 20.3752 16.7507C20.4469 16.6254 20.4846 16.4835 20.4847 16.3391V4.72341C20.4847 4.56288 20.4382 4.40579 20.3507 4.27118C20.2632 4.13658 20.1386 4.03024 19.9918 3.96507ZM2.23141 8.76734V5.93642C3.06359 6.2152 3.84931 6.37948 4.59604 6.45664C4.43769 7.01459 4.13614 7.52141 3.72132 7.92677C3.30651 8.33212 2.79287 8.6219 2.23141 8.76734ZM2.23141 10.4624V12.2595C3.24819 12.4319 4.18642 12.9155 4.91669 13.6437C5.64696 14.3719 6.13326 15.3087 6.30853 16.325C7.57796 16.1732 8.77272 15.7583 10.0256 15.3236L10.257 15.2439C11.6011 14.7785 13.0539 14.2981 14.666 14.2267C14.7258 14.2242 14.7855 14.2217 14.8453 14.2209C15.0927 13.2998 15.5992 12.4691 16.3047 11.8273C17.0102 11.1855 17.885 10.7596 18.8253 10.6001V8.80301C17.7884 8.62729 16.8337 8.12795 16.0979 7.37651C15.3621 6.62507 14.883 5.66007 14.7291 4.6197C13.3684 4.72009 12.1006 5.10756 10.7723 5.51577L10.7432 5.52572C9.35931 5.95136 7.91233 6.3969 6.2911 6.49232C6.09911 7.48869 5.60752 8.40271 4.88205 9.11216C4.15658 9.82162 3.23182 10.2927 2.23141 10.4624ZM18.8253 5.27515V7.10795C18.2398 6.9563 17.7068 6.64776 17.2837 6.21558C16.8605 5.7834 16.5634 5.24396 16.4242 4.65537C17.1767 4.74498 17.9699 4.93913 18.8253 5.27515ZM16.5486 14.3396C16.7368 13.8415 17.0417 13.3958 17.4379 13.04C17.8341 12.6843 18.3099 12.4289 18.8253 12.2952V15.01C18.0956 14.6969 17.3314 14.4724 16.5486 14.3396ZM2.23141 13.9546V15.7857C3.08268 16.1151 3.87172 16.2918 4.62093 16.3582C4.47493 15.7799 4.17606 15.2516 3.75565 14.8286C3.33523 14.4055 2.80876 14.1042 2.23141 13.9546Z" fill="#054BC7"/>
</g>
<defs>
<clipPath id="clip0_1_3432">
<rect width="19.9127" height="19.9127" fill="white" transform="translate(0.572021 0.574936)"/>
</clipPath>
</defs>
</svg>
