<svg width="83" height="22" viewBox="0 0 83 22" fill="none" xmlns="http://www.w3.org/2000/svg">
<path d="M14.8328 1.06096C13.805 0.354428 12.4639 0.000305176 10.8094 0.000305176H4.40414C3.89694 0.000305176 3.61672 0.253966 3.56349 0.760799L0.961537 17.094C0.934494 17.2544 0.974629 17.4011 1.08158 17.5345C1.18791 17.6681 1.32165 17.7346 1.48183 17.7346H4.5243C5.05793 17.7346 5.35124 17.4815 5.40508 16.9741L6.12556 12.5707C6.15187 12.3573 6.24572 12.1838 6.4059 12.0501C6.56595 11.9168 6.76614 11.8295 7.00634 11.7896C7.24654 11.75 7.47304 11.7299 7.68693 11.7299C7.90021 11.7299 8.15363 11.7435 8.44767 11.77C8.74097 11.7966 8.92795 11.8097 9.0081 11.8097C11.3032 11.8097 13.1046 11.163 14.4126 9.86814C15.7199 8.57401 16.3743 6.77941 16.3743 4.48361C16.3743 2.90903 15.86 1.76823 14.8328 1.06059V1.06096ZM11.5303 5.96532C11.3964 6.89958 11.0499 7.51311 10.4894 7.80679C9.92889 8.10083 9.12826 8.24718 8.08755 8.24718L6.76638 8.28707L7.44709 4.00346C7.5002 3.71015 7.67359 3.56331 7.96739 3.56331H8.72825C9.79527 3.56331 10.5697 3.71712 11.0501 4.02352C11.5303 4.33066 11.6904 4.97809 11.5303 5.96532Z" fill="#003087"/>
<path d="M82.4279 0H79.4659C79.1714 0 78.9982 0.146839 78.9453 0.440636L76.3431 17.0944L76.303 17.1745C76.303 17.3086 76.3563 17.4347 76.4634 17.5549C76.5695 17.6748 76.7036 17.7349 76.8635 17.7349H79.5061C80.0123 17.7349 80.2927 17.4818 80.3469 16.9744L82.9488 0.60081V0.561042C82.9487 0.187218 82.7747 0.000491056 82.4279 0.000491056V0Z" fill="#009CDE"/>
<path d="M46.6388 6.44617C46.6388 6.31304 46.5852 6.18603 46.4791 6.06623C46.372 5.94619 46.2519 5.88574 46.1188 5.88574H43.0363C42.7421 5.88574 42.5019 6.01985 42.3154 6.286L38.0721 12.5314L36.3106 6.52644C36.1765 6.09976 35.8833 5.88574 35.43 5.88574H32.427C32.2933 5.88574 32.1732 5.94595 32.0672 6.06623C31.9601 6.18603 31.907 6.31328 31.907 6.44617C31.907 6.49989 32.1673 7.28694 32.6875 8.80817C33.2078 10.3299 33.7683 11.9713 34.3688 13.7328C34.9694 15.494 35.2828 16.4287 35.3096 16.5345C33.121 19.5241 32.0271 21.1254 32.0271 21.3385C32.0271 21.6858 32.2003 21.8591 32.5476 21.8591H35.63C35.9235 21.8591 36.1636 21.7259 36.3508 21.4589L46.5593 6.72626C46.6122 6.6734 46.6388 6.5804 46.6388 6.44605V6.44617Z" fill="#003087"/>
<path d="M75.3432 5.88574H72.3006C71.9266 5.88574 71.7005 6.32625 71.6204 7.20716C70.9256 6.13989 69.6588 5.60553 67.8168 5.60553C65.8953 5.60553 64.2604 6.32626 62.9129 7.76746C61.565 9.20867 60.8914 10.9039 60.8914 12.8519C60.8914 14.4269 61.3517 15.6811 62.2722 16.6149C63.193 17.5496 64.4272 18.0161 65.9757 18.0161C66.7496 18.0161 67.5369 17.8557 68.3375 17.5357C69.1381 17.2155 69.7647 16.7887 70.2193 16.2547C70.2193 16.2815 70.192 16.4011 70.1393 16.6145C70.0853 16.8284 70.059 16.9891 70.059 17.0949C70.059 17.5225 70.232 17.7354 70.5796 17.7354H73.3421C73.8485 17.7354 74.1424 17.4823 74.2222 16.9749L75.8639 6.5262C75.8902 6.3659 75.8503 6.21943 75.7437 6.08581C75.6364 5.95268 75.5033 5.88574 75.3432 5.88574ZM70.119 13.7726C69.4384 14.4399 68.6176 14.7733 67.6569 14.7733C66.8826 14.7733 66.2559 14.5602 65.7753 14.1329C65.2946 13.7068 65.0544 13.1196 65.0544 12.3714C65.0544 11.3847 65.3881 10.5499 66.0556 9.86944C66.7219 9.18885 67.5501 8.84868 68.5375 8.84868C69.2842 8.84868 69.9048 9.06881 70.3991 9.50895C70.8923 9.94947 71.14 10.5566 71.14 11.3308C71.1397 12.2915 70.7994 13.1057 70.119 13.7726Z" fill="#009CDE"/>
<path d="M29.8653 5.88574H26.8227C26.4485 5.88574 26.2221 6.32625 26.142 7.20716C25.4214 6.13989 24.1536 5.60553 22.3388 5.60553C20.4172 5.60553 18.7823 6.32626 17.4347 7.76746C16.0867 9.20867 15.4131 10.9039 15.4131 12.8519C15.4131 14.4269 15.8735 15.6811 16.7943 16.6149C17.7151 17.5496 18.9492 18.0161 20.4973 18.0161C21.2442 18.0161 22.0187 17.8557 22.8192 17.5357C23.6198 17.2155 24.2604 16.7887 24.7408 16.2547C24.6337 16.5746 24.5806 16.855 24.5806 17.0949C24.5806 17.5225 24.754 17.7354 25.101 17.7354H27.8633C28.37 17.7354 28.6639 17.4823 28.7441 16.9749L30.3854 6.5262C30.4117 6.3659 30.3718 6.21943 30.2653 6.08581C30.1585 5.95268 30.0252 5.88574 29.8653 5.88574ZM24.641 13.7924C23.9602 14.4471 23.1258 14.7733 22.139 14.7733C21.3645 14.7733 20.744 14.5602 20.2773 14.1329C19.81 13.7068 19.5767 13.1196 19.5767 12.3714C19.5767 11.3847 19.9101 10.5499 20.5776 9.86944C21.2444 9.18885 22.0718 8.84855 23.0596 8.84855C23.8066 8.84855 24.4271 9.06881 24.9213 9.50895C25.4147 9.94947 25.6618 10.5566 25.6618 11.3308C25.6617 12.3183 25.3215 13.1393 24.641 13.7924Z" fill="#003087"/>
<path d="M60.3108 1.0609C59.2832 0.354367 57.9424 0.000244141 56.2876 0.000244141H49.9222C49.3883 0.000244141 49.0945 0.253905 49.0415 0.760738L46.4393 17.0939C46.4123 17.2544 46.4524 17.4011 46.5595 17.5344C46.6653 17.6681 46.7994 17.7345 46.9596 17.7345H50.2422C50.5624 17.7345 50.7758 17.5612 50.8829 17.2142L51.6035 12.5706C51.63 12.3572 51.7234 12.1837 51.8838 12.0501C52.044 11.9167 52.2439 11.8295 52.4844 11.7896C52.7243 11.7499 52.9508 11.7299 53.1648 11.7299C53.3782 11.7299 53.6315 11.7434 53.9253 11.77C54.2188 11.7965 54.4062 11.8096 54.4858 11.8096C56.7813 11.8096 58.5824 11.1629 59.8903 9.86808C61.1982 8.57395 61.852 6.77935 61.852 4.48355C61.8521 2.90897 61.338 1.76804 60.3108 1.06053V1.0609ZM56.2075 7.64643C55.6203 8.04668 54.7394 8.24675 53.5655 8.24675L52.2842 8.28688L52.9648 4.00315C53.0176 3.70997 53.1911 3.56288 53.4851 3.56288H54.2054C54.7926 3.56288 55.2596 3.58968 55.6071 3.64291C55.9534 3.69651 56.2876 3.86304 56.6078 4.14314C56.9283 4.42347 57.0882 4.8307 57.0882 5.36421C57.0882 6.48556 56.7943 7.24581 56.2075 7.64643Z" fill="#009CDE"/>
</svg>
