<svg width="6" height="12" viewBox="0 0 6 12" fill="none" xmlns="http://www.w3.org/2000/svg">
<path fill-rule="evenodd" clip-rule="evenodd" d="M0.566632 0.826673C0.500092 0.883576 0.445412 0.95303 0.405715 1.03107C0.366018 1.1091 0.342081 1.1942 0.335272 1.28148C0.328462 1.36877 0.338912 1.45655 0.366027 1.5398C0.393141 1.62305 0.436388 1.70014 0.493299 1.76667L4.12263 6.00001L0.493299 10.2333C0.386132 10.3685 0.335501 10.5399 0.35204 10.7115C0.368578 10.8832 0.451001 11.0418 0.581993 11.154C0.712985 11.2661 0.882354 11.3232 1.05452 11.3131C1.22669 11.3031 1.38826 11.2267 1.5053 11.1L5.5053 6.43334C5.60859 6.31258 5.66534 6.15891 5.66534 6.00001C5.66534 5.8411 5.60859 5.68743 5.5053 5.56667L1.5053 0.900006C1.4484 0.833466 1.37894 0.778786 1.3009 0.739089C1.22287 0.699392 1.13778 0.675455 1.05049 0.668646C0.9632 0.661836 0.875425 0.672287 0.792176 0.699401C0.708926 0.726516 0.631833 0.769763 0.565298 0.826673H0.566632Z" fill="#FDDA2F"/>
</svg>
