<svg width="18" height="18" viewBox="0 0 18 18" fill="none" xmlns="http://www.w3.org/2000/svg">
<path fill-rule="evenodd" clip-rule="evenodd" d="M6.81225 3.0945C6.85579 2.65753 7.06021 2.25235 7.38579 1.95768C7.71137 1.66301 8.13487 1.49988 8.574 1.5H9.42675C9.86588 1.49988 10.2894 1.66301 10.615 1.95768C10.9405 2.25235 11.145 2.65753 11.1885 3.0945C11.1933 3.14321 11.2112 3.1897 11.2403 3.22902C11.2695 3.26833 11.3087 3.29899 11.3539 3.31771C11.3992 3.33642 11.4486 3.3425 11.497 3.33529C11.5454 3.32807 11.591 3.30784 11.6287 3.27675C11.9685 2.99865 12.3996 2.85677 12.8381 2.87867C13.2766 2.90057 13.6914 3.08468 14.0018 3.39525L14.6047 3.99825C14.9153 4.30864 15.0994 4.72338 15.1213 5.16191C15.1432 5.60045 15.0013 6.03147 14.7233 6.37125C14.6922 6.40904 14.6719 6.45458 14.6647 6.50298C14.6575 6.55138 14.6636 6.60084 14.6823 6.64605C14.701 6.69127 14.7317 6.73055 14.771 6.75969C14.8103 6.78883 14.8568 6.80674 14.9055 6.8115C15.3426 6.85505 15.7479 7.05958 16.0426 7.38532C16.3373 7.71106 16.5003 8.13474 16.5 8.574V9.42675C16.4999 9.86575 16.3367 10.2891 16.0421 10.6145C15.7474 10.9399 15.3423 11.1442 14.9055 11.1877C14.8567 11.1924 14.81 11.2103 14.7706 11.2395C14.7311 11.2687 14.7004 11.3081 14.6817 11.3534C14.6629 11.3987 14.6569 11.4483 14.6642 11.4969C14.6715 11.5454 14.692 11.591 14.7233 11.6287C15.0014 11.9684 15.1435 12.3994 15.1217 12.8379C15.0999 13.2765 14.916 13.6913 14.6055 14.0018L14.0018 14.6047C13.6914 14.9153 13.2766 15.0994 12.8381 15.1213C12.3996 15.1432 11.9685 15.0013 11.6287 14.7233C11.591 14.6922 11.5454 14.6719 11.497 14.6647C11.4486 14.6575 11.3992 14.6636 11.3539 14.6823C11.3087 14.701 11.2695 14.7317 11.2403 14.771C11.2112 14.8103 11.1933 14.8568 11.1885 14.9055C11.1449 15.3426 10.9404 15.7479 10.6147 16.0426C10.2889 16.3373 9.86526 16.5003 9.426 16.5H8.574C8.13474 16.5003 7.71106 16.3373 7.38532 16.0426C7.05958 15.7479 6.85505 15.3426 6.8115 14.9055C6.80674 14.8568 6.78883 14.8103 6.75969 14.771C6.73055 14.7317 6.69127 14.701 6.64605 14.6823C6.60084 14.6636 6.55138 14.6575 6.50298 14.6647C6.45458 14.6719 6.40904 14.6922 6.37125 14.7233C5.66775 15.2993 4.641 15.2483 3.99825 14.6047L3.39525 14.0018C3.08468 13.6914 2.90057 13.2766 2.87867 12.8381C2.85677 12.3996 2.99865 11.9685 3.27675 11.6287C3.30805 11.591 3.32845 11.5454 3.33578 11.4969C3.34311 11.4483 3.33708 11.3987 3.31834 11.3534C3.2996 11.3081 3.26886 11.2687 3.22942 11.2395C3.18999 11.2103 3.14334 11.1924 3.0945 11.1877C2.65779 11.1442 2.25282 10.94 1.95818 10.6148C1.66355 10.2895 1.50025 9.86637 1.5 9.4275V8.5725C1.49988 8.13337 1.66301 7.70987 1.95768 7.38429C2.25235 7.05871 2.65753 6.85429 3.0945 6.81075C3.14321 6.80599 3.1897 6.78808 3.22902 6.75894C3.26833 6.7298 3.29899 6.69052 3.31771 6.6453C3.33642 6.60009 3.3425 6.55063 3.33529 6.50223C3.32807 6.45383 3.30784 6.40829 3.27675 6.3705C2.99865 6.03072 2.85677 5.5997 2.87867 5.16116C2.90057 4.72263 3.08468 4.30789 3.39525 3.9975L3.99825 3.3945C4.30868 3.08373 4.72357 2.89948 5.16228 2.87758C5.60099 2.85568 6.03217 2.99769 6.372 3.276C6.40979 3.30709 6.45533 3.32732 6.50373 3.33454C6.55213 3.34175 6.60159 3.33568 6.6468 3.31696C6.69202 3.29824 6.7313 3.26758 6.76044 3.22827C6.78958 3.18895 6.80749 3.14321 6.81225 3.0945ZM8.574 3C8.50672 2.99968 8.44174 3.0245 8.39179 3.06958C8.34185 3.11467 8.31054 3.17678 8.304 3.24375C8.1645 4.64925 6.5145 5.33175 5.42175 4.43775C5.36991 4.39524 5.30411 4.37354 5.23715 4.37687C5.1702 4.3802 5.10687 4.40831 5.0595 4.45575L4.45575 5.05875C4.40831 5.10612 4.3802 5.16945 4.37687 5.2364C4.37354 5.30336 4.39524 5.36916 4.43775 5.421C5.3325 6.5145 4.64925 8.16375 3.24375 8.304C3.17678 8.31054 3.11467 8.34185 3.06958 8.39179C3.0245 8.44174 2.99968 8.50672 3 8.574V9.426C3 9.5655 3.105 9.68175 3.24375 9.696C4.64925 9.83625 5.3325 11.4855 4.43775 12.5782C4.39503 12.6301 4.3732 12.6961 4.37653 12.7632C4.37986 12.8304 4.40811 12.8938 4.45575 12.9412L5.05875 13.5443C5.157 13.6418 5.31375 13.65 5.42175 13.5623C6.5145 12.6675 8.16375 13.3507 8.30475 14.7562C8.31128 14.8231 8.34248 14.8851 8.39227 14.9302C8.44205 14.9752 8.50684 15.0001 8.574 15H9.42675C9.5655 15 9.68175 14.895 9.696 14.7562C9.83625 13.3507 11.4855 12.6675 12.579 13.5623C12.6308 13.6048 12.6966 13.6265 12.7636 13.6231C12.8306 13.6198 12.8939 13.5917 12.9412 13.5443L13.5443 12.9405C13.5917 12.8931 13.6198 12.8298 13.6231 12.7628C13.6265 12.6959 13.6048 12.6301 13.5623 12.5782C12.6683 11.4855 13.3507 9.83625 14.7562 9.69525C14.8228 9.68875 14.8846 9.65776 14.9297 9.60829C14.9747 9.55882 14.9998 9.4944 15 9.4275V8.5725C15.0001 8.50534 14.9752 8.44055 14.9302 8.39077C14.8851 8.34098 14.8231 8.30978 14.7562 8.30325C13.3507 8.163 12.6675 6.51375 13.5623 5.421C13.605 5.36911 13.6268 5.30315 13.6235 5.23602C13.6201 5.16889 13.5919 5.10541 13.5443 5.058L12.9412 4.455C12.8938 4.40736 12.8304 4.37911 12.7632 4.37578C12.6961 4.37245 12.6301 4.39428 12.5782 4.437C11.4855 5.33175 9.83625 4.64775 9.696 3.243C9.6893 3.1763 9.65802 3.11448 9.60825 3.06956C9.55848 3.02464 9.49379 2.99985 9.42675 3H8.574Z" fill="#0577FB"/>
<path fill-rule="evenodd" clip-rule="evenodd" d="M9 7.5C8.60218 7.5 8.22064 7.65804 7.93934 7.93934C7.65804 8.22064 7.5 8.60218 7.5 9C7.5 9.39782 7.65804 9.77936 7.93934 10.0607C8.22064 10.342 8.60218 10.5 9 10.5C9.39782 10.5 9.77936 10.342 10.0607 10.0607C10.342 9.77936 10.5 9.39782 10.5 9C10.5 8.60218 10.342 8.22064 10.0607 7.93934C9.77936 7.65804 9.39782 7.5 9 7.5ZM6 9C6 8.20435 6.31607 7.44129 6.87868 6.87868C7.44129 6.31607 8.20435 6 9 6C9.79565 6 10.5587 6.31607 11.1213 6.87868C11.6839 7.44129 12 8.20435 12 9C12 9.79565 11.6839 10.5587 11.1213 11.1213C10.5587 11.6839 9.79565 12 9 12C8.20435 12 7.44129 11.6839 6.87868 11.1213C6.31607 10.5587 6 9.79565 6 9Z" fill="#0577FB"/>
</svg>
