<svg width="28" height="28" viewBox="0 0 28 28" fill="none" xmlns="http://www.w3.org/2000/svg">
<path fill-rule="evenodd" clip-rule="evenodd" d="M5.11591 7.24734C5.25566 7.13821 5.41844 7.06237 5.59189 7.02558C5.76534 6.98878 5.9449 6.99201 6.11691 7.03501L10.7836 8.20168C11.0359 8.26488 11.2598 8.41057 11.4198 8.6156C11.5798 8.82064 11.6667 9.07326 11.6667 9.33334V14C11.6667 14.1774 11.6263 14.3524 11.5485 14.5117C11.4707 14.6711 11.3576 14.8106 11.2178 14.9197C11.078 15.0288 10.9152 15.1046 10.7417 15.1414C10.5682 15.1781 10.3886 15.1748 10.2166 15.1317L5.54991 13.965C5.29763 13.9018 5.07369 13.7561 4.91368 13.5511C4.75367 13.3461 4.66675 13.0934 4.66675 12.8333V8.16668C4.66684 7.98938 4.70734 7.81444 4.78517 7.65514C4.863 7.49584 4.97611 7.35638 5.11591 7.24734ZM7.00008 9.66001V11.921L9.33341 12.5043V10.2445L7.00008 9.66118V9.66001Z" fill="white"/>
<path d="M6.11694 17.535C5.96791 17.4965 5.81275 17.4879 5.66039 17.5097C5.50802 17.5315 5.36147 17.5832 5.22918 17.6618C5.09688 17.7405 4.98145 17.8445 4.88954 17.968C4.79764 18.0914 4.73106 18.2318 4.69366 18.3811C4.65626 18.5304 4.64877 18.6857 4.67162 18.8379C4.69447 18.9901 4.74721 19.1363 4.82681 19.268C4.9064 19.3997 5.01127 19.5144 5.13538 19.6054C5.25949 19.6964 5.40038 19.762 5.54994 19.7983L10.2166 20.965C10.5159 21.0377 10.8318 20.9891 11.0954 20.8299C11.359 20.6706 11.5489 20.4136 11.6237 20.1148C11.6986 19.8161 11.6522 19.4999 11.4949 19.2351C11.3375 18.9704 11.0818 18.7786 10.7836 18.7017L6.11694 17.535Z" fill="white"/>
<path d="M23.2985 12.551C23.3734 12.8509 23.3261 13.1684 23.167 13.4335C23.008 13.6986 22.7502 13.8898 22.4504 13.965L17.7837 15.1316C17.6347 15.1701 17.4795 15.1787 17.3271 15.1569C17.1748 15.1352 17.0282 15.0835 16.8959 15.0048C16.7636 14.9262 16.6482 14.8221 16.5563 14.6987C16.4644 14.5752 16.3978 14.4348 16.3604 14.2855C16.323 14.1362 16.3155 13.981 16.3384 13.8288C16.3612 13.6766 16.414 13.5304 16.4936 13.3987C16.5731 13.2669 16.678 13.1523 16.8021 13.0612C16.9262 12.9702 17.0671 12.9046 17.2167 12.8683L21.8834 11.7016C22.032 11.6644 22.1866 11.6569 22.3382 11.6794C22.4898 11.702 22.6355 11.7542 22.7669 11.8331C22.8983 11.912 23.0129 12.016 23.1042 12.1391C23.1954 12.2623 23.2614 12.4023 23.2985 12.551Z" fill="white"/>
<path d="M22.4492 9.29836C22.6001 9.26338 22.7425 9.19869 22.8681 9.10809C22.9937 9.01748 23.1001 8.90277 23.1809 8.77064C23.2617 8.63851 23.3154 8.49161 23.3389 8.3385C23.3623 8.1854 23.3551 8.02915 23.3175 7.87889C23.2799 7.72862 23.2128 7.58734 23.1201 7.46328C23.0273 7.33923 22.9108 7.23488 22.7773 7.15633C22.6438 7.07778 22.496 7.0266 22.3425 7.00577C22.1891 6.98495 22.033 6.99489 21.8834 7.03503L17.2167 8.20169C17.0671 8.23803 16.9262 8.3036 16.8021 8.39462C16.678 8.48564 16.5731 8.60032 16.4936 8.73206C16.414 8.86379 16.3612 9.00997 16.3384 9.16217C16.3155 9.31438 16.323 9.4696 16.3604 9.61889C16.3978 9.76819 16.4644 9.90861 16.5563 10.0321C16.6482 10.1555 16.7636 10.2596 16.8959 10.3382C17.0282 10.4169 17.1748 10.4686 17.3271 10.4903C17.4795 10.5121 17.6347 10.5035 17.7837 10.465L22.4492 9.29836Z" fill="white"/>
<path fill-rule="evenodd" clip-rule="evenodd" d="M1.16675 5.46934C1.16684 4.92377 1.29447 4.38577 1.53944 3.8983C1.78442 3.41082 2.13997 2.98736 2.5777 2.66173C3.01543 2.33609 3.52323 2.1173 4.06055 2.02281C4.59788 1.92831 5.14985 1.96074 5.67241 2.1175L14.0001 4.61417L22.3277 2.1175C22.8503 1.96074 23.4023 1.92831 23.9396 2.02281C24.4769 2.1173 24.9847 2.33609 25.4225 2.66173C25.8602 2.98736 26.2157 3.41082 26.4607 3.8983C26.7057 4.38577 26.8333 4.92377 26.8334 5.46934V20.4307C26.8333 21.1833 26.5906 21.9158 26.1413 22.5196C25.6919 23.1234 25.06 23.5662 24.3391 23.7825L14.3349 26.7843C14.1165 26.8498 13.8837 26.8498 13.6652 26.7843L3.66108 23.7825C2.9402 23.5662 2.30823 23.1234 1.85891 22.5196C1.40959 21.9158 1.16687 21.1833 1.16675 20.4307V5.46934ZM12.8334 6.70134L5.00158 4.35167C4.82739 4.29948 4.6434 4.28873 4.46432 4.32028C4.28523 4.35184 4.116 4.42482 3.97013 4.5334C3.82426 4.64198 3.70579 4.78315 3.62418 4.94566C3.54256 5.10816 3.50007 5.28749 3.50008 5.46934V20.4307C3.50006 20.6817 3.58099 20.926 3.73084 21.1273C3.88069 21.3287 4.09148 21.4763 4.33191 21.5483L12.8334 24.0987V6.70134ZM15.1667 24.0987L23.6682 21.5483C23.9087 21.4763 24.1195 21.3287 24.2693 21.1273C24.4192 20.926 24.5001 20.6817 24.5001 20.4307V5.46934C24.5001 5.28749 24.4576 5.10816 24.376 4.94566C24.2944 4.78315 24.1759 4.64198 24.03 4.5334C23.8842 4.42482 23.7149 4.35184 23.5358 4.32028C23.3568 4.28873 23.1728 4.29948 22.9986 4.35167L15.1667 6.70134V24.0987Z" fill="white"/>
</svg>
