<svg width="18" height="18" viewBox="0 0 18 18" fill="none" xmlns="http://www.w3.org/2000/svg">
<path d="M4.5 11.25C4.30109 11.25 4.11032 11.329 3.96967 11.4697C3.82902 11.6103 3.75 11.8011 3.75 12C3.75 12.1989 3.82902 12.3897 3.96967 12.5303C4.11032 12.671 4.30109 12.75 4.5 12.75H5.25C5.44891 12.75 5.63968 12.671 5.78033 12.5303C5.92098 12.3897 6 12.1989 6 12C6 11.8011 5.92098 11.6103 5.78033 11.4697C5.63968 11.329 5.44891 11.25 5.25 11.25H4.5Z" fill="#0577FB"/>
<path d="M8.25 11.25C8.05109 11.25 7.86032 11.329 7.71967 11.4697C7.57902 11.6103 7.5 11.8011 7.5 12C7.5 12.1989 7.57902 12.3897 7.71967 12.5303C7.86032 12.671 8.05109 12.75 8.25 12.75H11.25C11.4489 12.75 11.6397 12.671 11.7803 12.5303C11.921 12.3897 12 12.1989 12 12C12 11.8011 11.921 11.6103 11.7803 11.4697C11.6397 11.329 11.4489 11.25 11.25 11.25H8.25Z" fill="#0577FB"/>
<path fill-rule="evenodd" clip-rule="evenodd" d="M0 4.5C0 3.90326 0.237053 3.33097 0.65901 2.90901C1.08097 2.48705 1.65326 2.25 2.25 2.25H15.75C16.3467 2.25 16.919 2.48705 17.341 2.90901C17.7629 3.33097 18 3.90326 18 4.5V13.5C18 14.0967 17.7629 14.669 17.341 15.091C16.919 15.5129 16.3467 15.75 15.75 15.75H2.25C1.65326 15.75 1.08097 15.5129 0.65901 15.091C0.237053 14.669 0 14.0967 0 13.5L0 4.5ZM2.25 3.75C2.05109 3.75 1.86032 3.82902 1.71967 3.96967C1.57902 4.11032 1.5 4.30109 1.5 4.5V6H16.5V4.5C16.5 4.30109 16.421 4.11032 16.2803 3.96967C16.1397 3.82902 15.9489 3.75 15.75 3.75H2.25ZM16.5 7.5H1.5V13.5C1.5 13.6989 1.57902 13.8897 1.71967 14.0303C1.86032 14.171 2.05109 14.25 2.25 14.25H15.75C15.9489 14.25 16.1397 14.171 16.2803 14.0303C16.421 13.8897 16.5 13.6989 16.5 13.5V7.5Z" fill="#0577FB"/>
</svg>
