<svg width="21" height="20" viewBox="0 0 21 20" fill="none" xmlns="http://www.w3.org/2000/svg">
<path fill-rule="evenodd" clip-rule="evenodd" d="M15.231 5.83333C15.231 7.15942 14.7042 8.43119 13.7665 9.36887C12.8288 10.3065 11.557 10.8333 10.231 10.8333C8.90487 10.8333 7.63311 10.3065 6.69542 9.36887C5.75774 8.43119 5.23096 7.15942 5.23096 5.83333C5.23096 4.50725 5.75774 3.23548 6.69542 2.2978C7.63311 1.36012 8.90487 0.833334 10.231 0.833334C11.557 0.833334 12.8288 1.36012 13.7665 2.2978C14.7042 3.23548 15.231 4.50725 15.231 5.83333ZM13.5643 5.83333C13.5643 6.71739 13.2131 7.56524 12.588 8.19036C11.9629 8.81548 11.115 9.16667 10.231 9.16667C9.3469 9.16667 8.49906 8.81548 7.87393 8.19036C7.24881 7.56524 6.89762 6.71739 6.89762 5.83333C6.89762 4.94928 7.24881 4.10143 7.87393 3.47631C8.49906 2.85119 9.3469 2.5 10.231 2.5C11.115 2.5 11.9629 2.85119 12.588 3.47631C13.2131 4.10143 13.5643 4.94928 13.5643 5.83333Z" fill="#0577FB"/>
<path fill-rule="evenodd" clip-rule="evenodd" d="M10.2311 11.6667C7.78529 11.6667 6.02195 12.1742 4.75612 12.935C3.48695 13.6983 2.77279 14.685 2.37945 15.5483C2.22548 15.8709 2.16809 16.2311 2.21423 16.5855C2.26036 16.9399 2.40804 17.2735 2.63945 17.5458C3.06029 18.0492 3.71445 18.3333 4.39779 18.3333H16.0645C16.7478 18.3333 17.402 18.0492 17.8228 17.5458C18.2645 17.0175 18.4145 16.2758 18.0828 15.5483C17.6895 14.685 16.9761 13.6983 15.7061 12.935C14.4411 12.1742 12.677 11.6667 10.2311 11.6667ZM3.89529 16.2408C4.16862 15.6408 4.67112 14.9308 5.61529 14.3633C6.56529 13.7917 8.01529 13.3333 10.232 13.3333C12.4478 13.3333 13.8978 13.7917 14.847 14.3633C15.7911 14.9308 16.2936 15.6417 16.567 16.2408C16.5894 16.2821 16.5989 16.3291 16.5945 16.3758C16.5874 16.4134 16.5701 16.4483 16.5445 16.4767C16.4686 16.5667 16.3011 16.6667 16.0645 16.6667H4.39779C4.16112 16.6667 3.99362 16.5667 3.91862 16.4767C3.89272 16.4484 3.87512 16.4135 3.86779 16.3758C3.86331 16.3291 3.87289 16.2821 3.89529 16.2408Z" fill="#0577FB"/>
</svg>
