<svg width="18" height="18" viewBox="0 0 18 18" fill="none" xmlns="http://www.w3.org/2000/svg">
<path fill-rule="evenodd" clip-rule="evenodd" d="M13.5 5.25C13.5 6.44347 13.0259 7.58807 12.182 8.43198C11.3381 9.27589 10.1935 9.75 9 9.75C7.80653 9.75 6.66193 9.27589 5.81802 8.43198C4.97411 7.58807 4.5 6.44347 4.5 5.25C4.5 4.05653 4.97411 2.91193 5.81802 2.06802C6.66193 1.22411 7.80653 0.75 9 0.75C10.1935 0.75 11.3381 1.22411 12.182 2.06802C13.0259 2.91193 13.5 4.05653 13.5 5.25ZM12 5.25C12 6.04565 11.6839 6.80871 11.1213 7.37132C10.5587 7.93393 9.79565 8.25 9 8.25C8.20435 8.25 7.44129 7.93393 6.87868 7.37132C6.31607 6.80871 6 6.04565 6 5.25C6 4.45435 6.31607 3.69129 6.87868 3.12868C7.44129 2.56607 8.20435 2.25 9 2.25C9.79565 2.25 10.5587 2.56607 11.1213 3.12868C11.6839 3.69129 12 4.45435 12 5.25Z" fill="#0577FB"/>
<path fill-rule="evenodd" clip-rule="evenodd" d="M8.9999 10.5C6.79865 10.5 5.21165 10.9568 4.0724 11.6415C2.93015 12.3285 2.2874 13.2165 1.9334 13.9935C1.79482 14.2838 1.74318 14.608 1.7847 14.927C1.82622 15.2459 1.95913 15.5461 2.1674 15.7913C2.54615 16.2443 3.1349 16.5 3.7499 16.5H14.2499C14.8649 16.5 15.4537 16.2443 15.8324 15.7913C16.2299 15.3158 16.3649 14.6483 16.0664 13.9935C15.7124 13.2165 15.0704 12.3285 13.9274 11.6415C12.7889 10.9568 11.2012 10.5 8.9999 10.5ZM3.29765 14.6168C3.54365 14.0768 3.9959 13.4378 4.84565 12.927C5.70065 12.4125 7.00565 12 9.00065 12C10.9949 12 12.2999 12.4125 13.1542 12.927C14.0039 13.4378 14.4562 14.0775 14.7022 14.6168C14.7223 14.6539 14.7309 14.6962 14.7269 14.7382C14.7205 14.7721 14.7049 14.8035 14.6819 14.829C14.6137 14.91 14.4629 15 14.2499 15H3.7499C3.5369 15 3.38615 14.91 3.31865 14.829C3.29534 14.8035 3.27951 14.7721 3.2729 14.7382C3.26887 14.6962 3.27749 14.6539 3.29765 14.6168Z" fill="#0577FB"/>
</svg>
