<svg width="97" height="19" viewBox="0 0 97 19" fill="none" xmlns="http://www.w3.org/2000/svg">
<path d="M15.9791 0.237784C16.6449 1.34744 16.8827 2.4571 16.8827 3.78869C16.8827 8.22733 13.1098 14.2353 10.0028 18.2301H2.88511L0 1.14136L6.43602 0.697503L7.98954 12.9196C9.32113 10.7003 11.1124 6.91158 11.1124 4.48619C11.1124 3.1546 10.8905 2.26687 10.4466 1.3633L15.9791 0.237784ZM24.1905 7.79931C25.3002 7.79931 28.1853 7.35545 28.1853 5.58C28.1853 4.67642 27.7415 4.47034 27.0757 4.47034C25.7599 4.47034 24.1905 5.80193 24.1905 7.79931ZM23.9845 11.1283C23.9845 13.1415 25.0941 14.0134 26.6477 14.0134C28.2012 14.0134 29.7705 13.5695 31.7521 12.6818L30.8485 17.5643C29.5169 18.2301 27.2976 18.674 25.0783 18.674C19.7678 18.674 17.7545 15.345 17.7545 11.3502C17.7545 6.03972 20.8774 0.475568 27.2976 0.475568C30.8485 0.475568 32.8459 2.4888 32.8459 5.35806C33.0837 9.57476 27.2976 11.1283 23.9845 11.1283ZM51.0601 4.23256C51.0601 4.89835 51.0601 5.78608 50.8382 6.45187L49.0628 18.2143H43.0706L44.8461 7.33959C44.8461 7.11766 45.068 6.43602 45.068 6.22994C45.068 5.32636 44.6241 5.32637 43.9583 5.32637C43.0547 5.32637 42.4048 5.77022 41.9451 5.99215L39.7258 18.2143H33.7178L36.3809 0.443866H41.6914V1.77546C43.023 0.871876 44.5766 0 46.7959 0C49.9505 0.475568 51.0601 2.01324 51.0601 4.23256ZM69.0366 2.25102C70.8121 0.919433 72.3656 0.237784 74.5849 0.237784C77.7078 0.237784 78.8175 1.79131 78.8175 4.23256C78.8175 4.89835 78.8175 5.78608 78.5955 6.45187L76.8359 18.2301H70.8279L72.6034 7.13352V6.22994C72.6034 5.32636 72.1595 5.12028 71.4937 5.12028C70.8279 5.12028 69.9402 5.34221 69.4805 5.78608L67.4831 18.2143H61.4751L63.2505 7.11767V6.21409C63.2505 5.31051 62.8067 5.10443 62.1409 5.10443C61.2373 5.10443 60.5873 5.5483 60.1276 5.77023L58.1302 18.1825H52.1222L54.8013 0.428013H59.9057L60.1276 1.98153C61.2373 1.07795 63.0127 0.206082 65.2321 0.206082C67.0392 0.475571 68.355 1.14136 69.0366 2.25102ZM90.7859 7.57738C90.7859 6.02386 90.342 5.13614 89.2324 5.13614C86.7911 5.13614 86.3473 9.36869 86.3473 11.5722C86.3473 13.1257 86.7911 14.2353 87.9008 14.2353C90.3579 14.0134 90.7859 9.57476 90.7859 7.57738ZM80.3551 11.1283C80.3551 5.58 83.2402 0.253637 90.1201 0.253637C95.2245 0.253637 97 3.37653 97 7.3713C97 12.9196 94.1149 18.4679 87.235 18.4679C82.1306 18.674 80.3551 15.345 80.3551 11.1283Z" fill="#3D95CE"/>
</svg>
