<svg width="57" height="24" viewBox="0 0 57 24" fill="none" xmlns="http://www.w3.org/2000/svg">
<path d="M5.25014 3.22509L0.320558 3.17971V6.45018H8.49023L0 17.333V20.1005H5.25014V23.2881H8.40023V20.1005H13.7554C13.8004 19.973 13.8162 19.6292 13.5312 19.3142C13.0587 18.7892 12.6829 18.2405 12.3379 17.5505C12.1804 17.243 12.0608 16.8746 12.0158 16.8446C10.9612 16.7963 4.89441 16.8088 4.89771 16.7705L13.3954 5.82098V3.22509H8.4003V0H5.25022L5.25014 3.22509ZM27.9983 1.70255C27.9233 1.73255 27.9008 3.39009 27.9008 9.66776C27.9008 18.1505 27.8933 18.008 28.2683 18.7355C28.6058 19.388 29.4308 19.973 30.3533 20.2131C30.8633 20.3481 32.3634 20.3631 32.9409 20.2431C33.6834 20.0855 33.8259 19.8605 33.5334 19.283C33.3459 18.923 33.0984 18.1355 33.0384 17.7005C32.9559 17.183 32.8509 17.1005 32.2209 17.1155C31.9209 17.123 31.6359 17.1005 31.5834 17.0705C31.2759 16.8755 31.2759 16.823 31.2759 9.22525C31.2759 4.34262 31.2534 1.89005 31.2009 1.79255C31.1258 1.65754 31.0283 1.65005 29.6033 1.65755C28.7708 1.65755 28.0433 1.68005 27.9983 1.70255ZM34.8759 1.72505C34.7784 1.78505 34.7635 2.74508 34.7635 9.61526C34.7635 17.018 34.771 17.468 34.906 17.9855C35.161 19.0055 35.7385 19.628 36.8335 20.0855C37.2535 20.2581 37.441 20.2881 38.2885 20.3106C39.4211 20.3406 39.9986 20.2581 40.5761 19.9655C41.1461 19.688 41.1611 19.493 40.6736 18.7805C40.4786 18.4955 40.1786 18.008 40.0136 17.7005L39.7136 17.138L39.1661 17.1305C38.4836 17.1155 38.416 17.0855 38.2885 16.763C38.191 16.5455 38.176 15.4279 38.176 9.22525C38.176 4.34262 38.1535 1.89005 38.101 1.79255C38.026 1.65754 37.9285 1.65005 36.5035 1.65005C35.671 1.65005 34.936 1.68755 34.8759 1.72505ZM54.8265 3.33759C54.219 3.6151 53.904 4.09511 53.8965 4.76263C53.889 5.33265 54.1215 5.76766 54.594 6.07517C55.179 6.47268 56.1165 6.36017 56.604 5.83516C57.2266 5.16764 57.0991 4.01261 56.334 3.4951C55.9365 3.22509 55.239 3.15759 54.8265 3.33759ZM56.0265 3.6151C56.8741 4.04261 57.0016 5.13764 56.2815 5.77516C55.974 6.04517 55.7565 6.10517 55.284 6.06016C53.979 5.93266 53.724 4.10261 54.939 3.5551C55.269 3.40509 55.6515 3.42759 56.0265 3.6151Z" fill="#6C1CD3"/>
<path d="M54.8791 3.9526C54.8266 4.04261 54.8191 5.43764 54.8716 5.58015C54.8941 5.64765 54.9616 5.70015 55.0216 5.70015C55.0966 5.70015 55.1266 5.59515 55.1266 5.32514C55.1266 4.98763 55.1416 4.95013 55.2991 4.95013C55.4191 4.95013 55.5241 5.05513 55.6891 5.32514C55.8241 5.55015 55.9591 5.70015 56.0416 5.70015C56.2216 5.70015 56.2141 5.67015 55.9366 5.26514C55.7716 5.02513 55.7266 4.91263 55.7941 4.89013C55.9891 4.82263 56.1766 4.57512 56.1766 4.38761C56.1766 4.0501 55.9366 3.9001 55.3966 3.9001C55.1266 3.9001 54.8941 3.9226 54.8791 3.9526ZM55.7866 4.19261C55.8466 4.22261 55.8766 4.33511 55.8616 4.43262C55.8391 4.59012 55.7941 4.61262 55.4866 4.63512L55.1266 4.65762V4.39511C55.1266 4.13261 55.1341 4.12511 55.4116 4.12511C55.5616 4.12511 55.7341 4.15511 55.7866 4.19261ZM18.5631 6.41267C18.5256 6.42767 18.2331 6.49517 17.9256 6.56267C15.998 7.00519 14.2955 8.48273 13.5755 10.3578C13.178 11.3928 13.0355 12.1953 13.028 13.3879C13.0205 15.0604 13.358 16.2904 14.1305 17.4605C15.0005 18.773 16.2755 19.6655 17.9256 20.1155C18.4881 20.2655 18.7356 20.288 20.0256 20.288C21.3007 20.288 21.5632 20.2655 22.0957 20.123C23.4157 19.7555 24.5408 19.148 25.4483 18.2855C26.0258 17.7455 26.0183 17.5955 25.4333 17.1455C25.1933 16.958 24.7583 16.5529 24.4733 16.2379C24.1133 15.8554 23.8957 15.6754 23.7832 15.6754C23.6782 15.6754 23.4382 15.8254 23.2057 16.0504C22.4032 16.778 21.3907 17.123 20.0631 17.1155C18.8481 17.108 17.9631 16.7929 17.4006 16.1479C17.1156 15.8254 16.7556 15.0904 16.6806 14.6779L16.6356 14.4004H21.3082C23.8807 14.4004 26.0333 14.3704 26.0858 14.3329C26.3333 14.1754 26.3933 13.0879 26.2133 11.9028C25.7858 9.06774 24.0908 7.16269 21.4282 6.52517C20.9557 6.41267 20.5657 6.37517 19.7256 6.38267C19.1256 6.38267 18.6081 6.39767 18.5631 6.41267ZM20.5657 9.30775C21.1132 9.42025 21.7882 9.79526 22.1032 10.1553C22.3957 10.4853 22.6957 11.0778 22.7707 11.4603L22.8232 11.7003H16.7106L16.7631 11.4603C16.9881 10.4478 17.8581 9.60026 18.9381 9.33025C19.4181 9.21024 20.0631 9.20274 20.5657 9.30775ZM45.8263 6.48017C43.1638 7.07269 41.3637 8.94774 40.8012 11.7153C40.4637 13.3504 40.6512 15.2554 41.2887 16.6204C42.1587 18.5105 43.7413 19.733 45.9013 20.1755C46.5839 20.318 46.8539 20.333 47.9264 20.303C48.8339 20.273 49.3214 20.2205 49.7415 20.108C51.024 19.7705 52.149 19.1555 53.0115 18.3305C53.6716 17.693 53.6716 17.663 52.959 17.0705C52.629 16.8005 52.1865 16.3729 51.9765 16.1254C51.489 15.5629 51.3615 15.5554 50.814 16.0504C49.9965 16.793 49.0214 17.123 47.6639 17.1155C45.7588 17.108 44.6488 16.2904 44.2888 14.6404L44.2363 14.4458H53.7391C54.0616 14.2133 53.9416 11.7528 53.5516 10.6128C53.4766 10.3878 53.2741 9.93776 53.109 9.62276C52.2315 7.94271 50.829 6.90018 48.8789 6.48767C48.2564 6.35267 46.4189 6.35267 45.8263 6.48017ZM48.1664 9.30775C48.6764 9.42025 49.2014 9.68276 49.5765 10.0203C49.8915 10.3128 50.4015 11.2353 50.4015 11.5203V11.7003H44.3113L44.3638 11.4903C44.7538 9.88526 46.4039 8.93274 48.1664 9.30775Z" fill="#6C1CD3"/>
</svg>
